# Tiled2Unity generated file. Do not modify by hand.
# Wavefront file for 'MapMain_mesh_0003.obj'

# Vertices (Count = 20)
v -128 -48 0
v -144 -48 0
v -144 -32 0
v -128 -32 0
v -112 -48 0
v -128 -48 0
v -128 -32 0
v -112 -32 0
v -96 -48 0
v -112 -48 0
v -112 -32 0
v -96 -32 0
v -80 -48 0
v -96 -48 0
v -96 -32 0
v -80 -32 0
v -64 -48 0
v -80 -48 0
v -80 -32 0
v -64 -32 0

# Texture cooridinates (Count = 13)
vt 0.8404256 0.9174275
vt 0.8510638 0.9174275
vt 0.8510638 0.9237792
vt 0.8404256 0.9237792
vt 0.8085107 0.9110758
vt 0.819149 0.9110758
vt 0.819149 0.9174275
vt 0.8085107 0.9174275
vt 0.8297873 0.9174275
vt 0.8297873 0.9237792
vt 0.819149 0.9237792
vt 0.8297873 0.9110758
vt 0.8085107 0.9237792

# Normal
vn 0 0 -1

# Mesh description
g MapMain_mesh_0003

# Faces
f 1/1/1 2/2/1 3/3/1 4/4/1
f 5/5/1 6/6/1 7/7/1 8/8/1
f 9/7/1 10/9/1 11/10/1 12/11/1
f 13/6/1 14/12/1 15/9/1 16/7/1
f 17/8/1 18/7/1 19/11/1 20/13/1

